<svg width="100" height="100" viewBox="0 0 100 100" fill="none" xmlns="http://www.w3.org/2000/svg">
<circle cx="50" cy="50" r="50" fill="#D9D9D9"/>
<path d="M77.6358 65.7179C74.6013 58.5643 68.8753 52.858 61.6674 49.8048C61.1867 49.604 60.7096 49.4102 60.2219 49.2411C60.7225 48.8503 61.1982 48.4291 61.646 47.9799C64.7338 44.8975 66.4663 40.733 66.4663 36.3929C66.4663 32.0528 64.7338 27.8884 61.646 24.806C60.1213 23.2833 58.3067 22.0745 56.3072 21.2496C54.3077 20.4247 52.1628 20 49.9964 20C47.83 20 45.6851 20.4247 43.6856 21.2496C41.6861 22.0745 39.8715 23.2833 38.3468 24.806C35.2589 27.8884 33.5265 32.0528 33.5265 36.3929C33.5265 40.733 35.2589 44.8975 38.3468 47.9799C38.799 48.4246 39.2743 48.8455 39.7709 49.2411C39.2832 49.4172 38.8061 49.5934 38.3254 49.8048C31.1175 52.858 25.3914 58.5643 22.357 65.7179C20.7948 69.3985 19.9934 73.3515 20 77.3436C20.0258 78.0567 20.3303 78.7321 20.8493 79.2276C21.3683 79.7231 22.0613 80 22.7825 80C23.5037 80 24.1967 79.7231 24.7157 79.2276C25.2347 78.7321 25.5392 78.0567 25.5649 77.3436C25.5514 74.1409 26.1776 70.9671 27.4076 68.0047C28.6375 65.0422 30.447 62.3495 32.732 60.0812C34.991 57.8222 37.6803 56.0289 40.6444 54.805C43.6084 53.5811 46.7882 52.9509 50 52.9509C53.2117 52.9509 56.3916 53.5811 59.3556 54.805C62.3196 56.0289 65.0089 57.8222 67.2679 60.0812C69.5529 62.3495 71.3624 65.0422 72.5923 68.0047C73.8223 70.9671 74.4485 74.1409 74.435 77.3436C74.4608 78.0567 74.7652 78.7321 75.2842 79.2276C75.8032 79.7231 76.4962 80 77.2174 80C77.9386 80 78.6317 79.7231 79.1507 79.2276C79.6696 78.7321 79.9741 78.0567 79.9999 77.3436C80.0119 73.3517 79.2128 69.3981 77.65 65.7179H77.6358ZM49.9786 25.5071C52.1602 25.4868 54.2987 26.1084 56.1226 27.293C57.9465 28.4775 59.3736 30.1716 60.2227 32.1602C61.0717 34.1487 61.3045 36.3421 60.8915 38.4618C60.4785 40.5815 59.4382 42.532 57.9028 44.0656C56.3674 45.5992 54.4061 46.6469 52.2678 47.0755C50.1295 47.5042 47.9108 47.2945 45.8932 46.4731C43.8756 45.6518 42.1501 44.2557 40.9358 42.4623C39.7215 40.6688 39.0732 38.5587 39.0731 36.4C39.0636 33.5258 40.2063 30.7652 42.2505 28.7233C44.2948 26.6813 47.0739 25.5248 49.9786 25.5071Z" fill="#474747"/>
</svg>
