<svg width="25" height="25" viewBox="0 0 20 20" fill="none"
  xmlns="http://www.w3.org/2000/svg">
  <path d="M14.1354 10.411C13.7953 10.7503 13.7953 11.3009 14.1354 11.641C14.4755 11.9811 15.0252 11.9811 15.3653 11.641L18.5418 8.46438C20.4805 6.52467 20.4866 3.37504 18.5565 1.44403C16.623 -0.487849 13.4744 -0.480021 11.5365 1.45969L8.36004 4.63628C6.42129 6.57512 6.41433 9.72388 8.34439 11.6558C8.51399 11.8254 8.73666 11.9106 8.95932 11.9106C9.18199 11.9106 9.40465 11.8254 9.57426 11.6566C9.91435 11.3165 9.91435 10.7659 9.57426 10.4258C8.32177 9.17241 8.32786 7.12746 9.58992 5.86621L12.7664 2.68962C14.0276 1.42837 16.0742 1.42141 17.3267 2.67396C18.5792 3.92738 18.5731 5.9732 17.3119 7.23444L14.1354 10.411Z" fill="white"/>
  <path d="M1.44437 18.5561C2.40722 19.519 3.67363 20 4.94091 20C6.21602 20 7.49286 19.5129 8.46528 18.5404L11.6417 15.3647C13.5805 13.4259 13.5875 10.2771 11.6574 8.34435C11.3173 8.00425 10.7676 8.00512 10.4275 8.34435C10.0874 8.68445 10.0874 9.23418 10.4275 9.57515C11.68 10.8286 11.6739 12.8744 10.4119 14.1348L7.23453 17.3114C5.97248 18.5743 3.92587 18.5796 2.67425 17.327C1.42175 16.0745 1.42697 14.0286 2.68903 12.7665L5.86549 9.58994C6.20558 9.25071 6.20558 8.70011 5.86549 8.36001C5.52541 8.01991 4.9757 8.01991 4.63561 8.36001L1.45916 11.5357C-0.480467 13.4763 -0.487425 16.6259 1.44437 18.5561Z" fill="white"/>
</svg>
