<svg width="30" height="30" viewBox="0 0 20 20" fill="none"
  xmlns="http://www.w3.org/2000/svg">
  <path d="M10.9613 0C8.18755 0 5.93921 2.23867 5.93921 5.00048C5.93921 5.55265 6.38926 5.99983 6.94383 5.99983C7.49839 5.99983 7.94844 5.55265 7.94844 5.00048C7.94844 3.34304 9.29672 2.00058 10.9613 2.00058H14.9779C16.6425 2.00058 17.9908 3.34304 17.9908 5.00048V14.9995C17.9908 16.657 16.6425 17.9994 14.9779 17.9994H10.9613C9.29672 17.9994 7.94844 16.657 7.94844 14.9995C7.94844 14.4473 7.49839 14.0002 6.94383 14.0002C6.38926 14.0002 5.93921 14.4473 5.93921 14.9995C5.93921 17.7614 8.18757 20 10.9613 20H14.9779C17.7517 20 20 17.7613 20 14.9995V5.00048C20 2.23865 17.7516 0 14.9779 0H10.9613Z" fill="white"/>
  <path d="M11.965 8.99973C12.5196 8.99973 12.9696 9.44784 12.9696 10C12.9696 10.5522 12.5196 11.0003 11.965 11.0003V8.99973Z" fill="white"/>
  <path d="M3.64748 8.9997C3.73693 8.89002 3.82261 8.78408 3.90358 8.6819C4.15025 8.37253 4.35927 8.10067 4.50616 7.90567C4.58054 7.80818 4.63891 7.72943 4.6794 7.67506L4.72553 7.61131L4.73872 7.59443L4.74248 7.58881C4.74248 7.58881 4.74342 7.58787 3.93088 7.00008L4.74248 7.58881C5.0692 7.14163 4.97033 6.5154 4.52122 6.19105C4.07211 5.86667 3.4441 5.96511 3.11835 6.41229L3.11553 6.41604L3.10517 6.4301L3.06374 6.48729C3.02608 6.53697 2.97147 6.6101 2.9018 6.70291C2.76245 6.88665 2.5638 7.1454 2.32935 7.43975C1.85671 8.03412 1.25695 8.74846 0.709909 9.29314L0 9.99999L0.709909 10.7068C1.25693 11.2515 1.85669 11.9659 2.32935 12.5602C2.56379 12.8546 2.76246 13.1124 2.9018 13.2971C2.97147 13.3899 3.02608 13.463 3.06374 13.5127L3.10517 13.5699L3.11553 13.5839L3.11835 13.5868C3.44413 14.0339 4.07211 14.1333 4.52122 13.8089C4.97034 13.4846 5.06918 12.8593 4.74343 12.4121L4.73872 12.4055L4.72554 12.3887L4.6794 12.3249C4.63891 12.2706 4.58054 12.1918 4.50616 12.0943C4.35928 11.8993 4.15025 11.6275 3.90358 11.3181C3.82261 11.2159 3.73693 11.11 3.64749 11.0003H11.965V8.99973L3.64748 8.9997Z" fill="white"/>
</svg>
