<svg width="20" height="20" viewBox="0 0 20 20" fill="none" xmlns="http://www.w3.org/2000/svg">
<path d="M10 16.6C5.5244 16.6 1.9378 13.1678 0.220363 10.2271L0 9.84911L0.220363 9.47112C1.96046 6.48497 5.56234 3 10 3C14.4377 3 18.0393 6.48497 19.7796 9.47112L20 9.84911L19.7796 10.2271C18.0699 13.1678 14.4758 16.6 10 16.6ZM1.77051 9.84149C3.35104 12.3438 6.36014 15.0881 10 15.0881C13.6399 15.0881 16.649 12.3438 18.2295 9.84149C16.6261 7.29392 13.6019 4.50445 10 4.50445C6.39808 4.50445 3.3739 7.30142 1.77051 9.84149Z" fill="white"/>
<path d="M10 12.8201C8.3207 12.8201 6.96051 11.4669 6.96051 9.79623C6.96051 8.12554 8.3207 6.77234 10 6.77234C11.6793 6.77234 13.0395 8.12554 13.0395 9.79623C13.0395 11.4669 11.6793 12.8201 10 12.8201ZM10 8.28428C9.16414 8.28428 8.48026 8.96466 8.48026 9.79623C8.48026 10.6278 9.16414 11.3082 10 11.3082C10.8359 11.3082 11.5198 10.6278 11.5198 9.79623C11.5198 8.96466 10.8359 8.28428 10 8.28428Z" fill="white"/>
</svg>
