<svg width="20" height="20" viewBox="0 0 20 20" fill="none" xmlns="http://www.w3.org/2000/svg">
<path d="M5.8577 5.4675C5.8579 6.28707 6.10414 7.08769 6.56457 7.76774C7.02512 8.44795 7.67897 8.97663 8.44253 9.28747C9.20604 9.5983 10.0454 9.67757 10.8542 9.51542C11.6631 9.35327 12.4057 8.95684 12.9876 8.37562C13.5696 7.79435 13.9644 7.05445 14.1213 6.24955C14.2781 5.44463 14.1897 4.61181 13.8674 3.85705C13.5451 3.10234 13.0039 2.46025 12.3132 2.01167C11.6228 1.56327 10.8139 1.32821 9.98903 1.3357C8.89042 1.3426 7.83829 1.78009 7.06349 2.554C6.28852 3.32807 5.85431 4.37566 5.8577 5.4675ZM5.8577 5.4675C5.8577 5.46777 5.8577 5.46804 5.8577 5.46831L6.3577 5.46666L5.8577 5.46668C5.8577 5.46696 5.8577 5.46723 5.8577 5.4675ZM18.7516 15.4345L18.8656 15.7032C19.2869 16.7875 19.5023 17.9402 19.5 19.1032C19.4945 19.2074 19.4492 19.3068 19.3716 19.3809C19.2922 19.4567 19.185 19.5 19.0725 19.5C18.9599 19.5 18.8528 19.4567 18.7733 19.3809C18.696 19.3071 18.6508 19.2082 18.645 19.1044C18.6482 17.9744 18.4264 16.8549 17.9926 15.8098C17.5572 14.7613 16.917 13.8086 16.1089 13.0062C15.3093 12.2068 14.3577 11.5724 13.3093 11.1395C12.2607 10.7065 11.1359 10.4836 9.99998 10.4836C8.86403 10.4836 7.73924 10.7065 6.69062 11.1395C5.64232 11.5724 4.6908 12.2067 3.89121 13.0061C3.08304 13.8085 2.44276 14.7613 2.00741 15.8098C1.57352 16.8549 1.35179 17.9744 1.35494 19.1044C1.34917 19.2082 1.30396 19.3071 1.22664 19.3809C1.14719 19.4567 1.04003 19.5 0.927497 19.5C0.814968 19.5 0.70781 19.4567 0.628356 19.3809C0.550807 19.3069 0.505559 19.2076 0.500002 19.1035C0.499266 17.8438 0.752809 16.5964 1.24593 15.4346L1.24598 15.4345C2.20636 13.1705 4.01935 11.3629 6.30349 10.3953L6.30351 10.3954L6.30975 10.3926C6.45317 10.3295 6.59836 10.2757 6.76014 10.2173L7.6017 9.9134L6.90183 9.35593C6.75038 9.2353 6.60541 9.10696 6.4675 8.97143C5.53246 8.03733 5.00883 6.77684 5.00883 5.46431C5.00883 4.15116 5.53296 2.8901 6.46883 1.95586L6.46891 1.95578C6.93043 1.49487 7.47995 1.12872 8.08588 0.878751C8.69182 0.628773 9.34199 0.5 9.9988 0.5C10.6556 0.5 11.3058 0.628773 11.9117 0.878751C12.5176 1.12872 13.0672 1.49487 13.5287 1.95578L13.5288 1.95586C14.4646 2.8901 14.9888 4.15116 14.9888 5.46431C14.9888 6.77746 14.4646 8.03853 13.5288 8.97276L13.5279 8.97361C13.3933 9.10866 13.2502 9.23534 13.0996 9.35289L12.3751 9.9184L13.2435 10.2194C13.3904 10.2704 13.5373 10.3298 13.6952 10.3958C15.9788 11.3634 17.7914 13.1708 18.7516 15.4345Z" fill="white" stroke="white"/>
</svg>
