<svg width="30" height="30" viewBox="0 0 30 30" fill="none" xmlns="http://www.w3.org/2000/svg">
<path d="M25.3443 14.3957C24.2585 14.3957 23.378 15.2756 23.378 16.3606V26.0813H3.9218V6.63985H13.6499C14.7423 6.63985 15.6273 5.75336 15.6273 4.66398C15.6273 3.5724 14.7423 2.68811 13.6499 2.68811H1.96195C0.878347 2.68811 0 3.56359 0 4.64637V28.0395C0 29.1223 0.878347 30 1.96195 30H25.3441C26.4277 30 27.306 29.1223 27.306 28.0395V16.3605C27.306 15.2777 26.4279 14.3979 25.3443 14.3957Z" fill="white"/>
<path d="M29.9651 1.59657C29.9519 1.53703 29.9342 1.47529 29.9144 1.41795C29.8989 1.354 29.8769 1.29225 29.8526 1.23051C29.8239 1.16656 29.793 1.10481 29.7577 1.04527L29.6893 0.897521C29.6319 0.81152 29.5657 0.73213 29.4973 0.654947L29.3781 0.54248C29.3009 0.463095 29.2148 0.39473 29.1243 0.332987C29.0691 0.295499 29.014 0.262421 28.9544 0.231546C28.897 0.202879 28.8418 0.169803 28.7844 0.147747L28.5814 0.0793876L28.4181 0.0352834V0.0330782C28.321 0.0176416 28.2239 0.00661578 28.1246 0H19.436C18.3524 0 17.4741 0.877681 17.4741 1.95826C17.4741 3.04103 18.3524 3.91871 19.436 3.91871H23.3003L10.2485 16.9866C9.48048 17.754 9.48048 18.9977 10.2485 19.7651C11.0165 20.526 12.2546 20.526 13.0226 19.7651L26.0783 6.72326V10.4942C26.0783 11.577 26.9566 12.4524 28.038 12.4524C29.1216 12.4524 30 11.577 30 10.4942V1.98214C30 1.85203 29.989 1.72413 29.9647 1.59623L29.9651 1.59657Z" fill="white"/>
</svg>
